<svg width="24" height="24" viewBox="0 0 24 24" fill="none" xmlns="http://www.w3.org/2000/svg">
<path d="M12 1.5C14.7848 1.5 17.4555 2.60625 19.4246 4.57538C21.3938 6.54451 22.5 9.21523 22.5 12C22.5 14.7848 21.3938 17.4555 19.4246 19.4246C17.4555 21.3938 14.7848 22.5 12 22.5C9.21523 22.5 6.54451 21.3938 4.57538 19.4246C2.60625 17.4555 1.5 14.7848 1.5 12C1.5 9.21523 2.60625 6.54451 4.57538 4.57538C6.54451 2.60625 9.21523 1.5 12 1.5ZM6.75 12C6.75 12.2387 6.84482 12.4676 7.0136 12.6364C7.18239 12.8052 7.4113 12.9 7.65 12.9H16.35C16.5887 12.9 16.8176 12.8052 16.9864 12.6364C17.1552 12.4676 17.25 12.2387 17.25 12C17.25 11.7613 17.1552 11.5324 16.9864 11.3636C16.8176 11.1948 16.5887 11.1 16.35 11.1H7.65C7.53181 11.1 7.41478 11.1233 7.30558 11.1685C7.19639 11.2137 7.09718 11.28 7.0136 11.3636C6.93003 11.4472 6.86374 11.5464 6.81851 11.6556C6.77328 11.7648 6.75 11.8818 6.75 12Z" fill="#EB292A"/>
<path d="M12 1.50781C14.7827 1.50781 17.4513 2.61339 19.4189 4.58105C21.3866 6.54872 22.4922 9.2173 22.4922 12C22.4922 14.7827 21.3866 17.4513 19.4189 19.4189C17.4513 21.3866 14.7827 22.4922 12 22.4922C9.2173 22.4922 6.54872 21.3866 4.58105 19.4189C2.61339 17.4513 1.50781 14.7827 1.50781 12C1.50781 9.2173 2.61339 6.54872 4.58105 4.58105C6.54872 2.61339 9.2173 1.50781 12 1.50781ZM7.65039 11.0918C7.53124 11.0918 7.41283 11.1156 7.30273 11.1611C7.19259 11.2068 7.09211 11.2741 7.00781 11.3584C6.92373 11.4426 6.85709 11.5424 6.81152 11.6523C6.7659 11.7625 6.74219 11.8808 6.74219 12C6.74219 12.2406 6.83775 12.4714 7.00781 12.6416C7.17806 12.8118 7.40962 12.9082 7.65039 12.9082H16.3496C16.5904 12.9082 16.8219 12.8118 16.9922 12.6416C17.1623 12.4714 17.2578 12.2406 17.2578 12C17.2578 11.7594 17.1623 11.5286 16.9922 11.3584C16.8219 11.1882 16.5904 11.0918 16.3496 11.0918H7.65039Z" stroke="#0D0D0D" stroke-opacity="0.9" stroke-width="0.015625"/>
</svg>
